<svg width="512" height="512" viewBox="0 0 512 512" fill="none" xmlns="http://www.w3.org/2000/svg">
<path d="M49.228 474.826C28.6001 474.826 13.9381 465.624 5.24203 447.221C-3.45405 428.818 -1.33059 411.729 11.6124 395.955L146.3 232.145V86.5362H122.032C115.156 86.5362 109.393 84.2105 104.741 79.5592C100.09 74.9078 97.7642 69.1441 97.7642 62.2681C97.7642 55.3922 100.09 49.6285 104.741 44.9771C109.393 40.3257 115.156 38 122.032 38H316.177C323.053 38 328.817 40.3257 333.468 44.9771C338.12 49.6285 340.445 55.3922 340.445 62.2681C340.445 69.1441 338.12 74.9078 333.468 79.5592C328.817 84.2105 323.053 86.5362 316.177 86.5362H291.909V232.145L426.597 395.955C439.54 411.729 441.664 428.818 432.968 447.221C424.272 465.624 409.61 474.826 388.982 474.826H49.228ZM49.228 426.29H388.982L243.373 249.133V86.5362H194.837V249.133L49.228 426.29Z" fill="#7C1B1B"/>
<path d="M74.228 474.826C53.6001 474.826 38.9381 465.624 30.242 447.221C21.546 428.818 23.6694 411.729 36.6124 395.955L171.3 232.145V86.5362H147.032C140.156 86.5362 134.393 84.2105 129.741 79.5592C125.09 74.9078 122.764 69.1441 122.764 62.2681C122.764 55.3922 125.09 49.6285 129.741 44.9771C134.393 40.3257 140.156 38 147.032 38H341.177C348.053 38 353.817 40.3257 358.468 44.9771C363.12 49.6285 365.445 55.3922 365.445 62.2681C365.445 69.1441 363.12 74.9078 358.468 79.5592C353.817 84.2105 348.053 86.5362 341.177 86.5362H316.909V232.145L451.597 395.955C464.54 411.729 466.664 428.818 457.968 447.221C449.272 465.624 434.61 474.826 413.982 474.826H74.228ZM74.228 426.29H413.982L268.373 249.133V86.5362H219.837V249.133L74.228 426.29Z" fill="#7C1B1B"/>
<path d="M121.228 474.826C100.6 474.826 85.9381 465.624 77.242 447.221C68.546 428.818 70.6694 411.729 83.6124 395.955L218.3 232.145V86.5362H194.032C187.156 86.5362 181.393 84.2105 176.741 79.5592C172.09 74.9078 169.764 69.1441 169.764 62.2681C169.764 55.3922 172.09 49.6285 176.741 44.9771C181.393 40.3257 187.156 38 194.032 38H388.177C395.053 38 400.817 40.3257 405.468 44.9771C410.12 49.6285 412.445 55.3922 412.445 62.2681C412.445 69.1441 410.12 74.9078 405.468 79.5592C400.817 84.2105 395.053 86.5362 388.177 86.5362H363.909V232.145L498.597 395.955C511.54 411.729 513.664 428.818 504.968 447.221C496.272 465.624 481.61 474.826 460.982 474.826H121.228ZM121.228 426.29H460.982L315.373 249.133V86.5362H266.837V249.133L121.228 426.29Z" fill="#FE4343"/>
</svg>
