<svg width="512" height="512" viewBox="0 0 512 512" fill="none" xmlns="http://www.w3.org/2000/svg">
<path d="M49.228 473.826C28.6001 473.826 13.9381 464.624 5.24203 446.221C-3.45405 427.818 -1.33059 410.729 11.6124 394.955L146.3 231.145V85.5362H122.032C115.156 85.5362 109.393 83.2105 104.741 78.5592C100.09 73.9078 97.7642 68.1441 97.7642 61.2681C97.7642 54.3922 100.09 48.6285 104.741 43.9771C109.393 39.3257 115.156 37 122.032 37H316.177C323.053 37 328.817 39.3257 333.468 43.9771C338.12 48.6285 340.445 54.3922 340.445 61.2681C340.445 68.1441 338.12 73.9078 333.468 78.5592C328.817 83.2105 323.053 85.5362 316.177 85.5362H291.909V231.145L426.597 394.955C439.54 410.729 441.664 427.818 432.968 446.221C424.272 464.624 409.61 473.826 388.982 473.826H49.228ZM49.228 425.29H388.982L243.373 248.133V85.5362H194.837V248.133L49.228 425.29Z" fill="#7C1B1B"/>
<path d="M74.228 474.826C53.6001 474.826 38.9381 465.624 30.242 447.221C21.546 428.818 23.6694 411.729 36.6124 395.955L171.3 232.145V86.5362H147.032C140.156 86.5362 134.393 84.2105 129.741 79.5592C125.09 74.9078 122.764 69.1441 122.764 62.2681C122.764 55.3922 125.09 49.6285 129.741 44.9771C134.393 40.3257 140.156 38 147.032 38H341.177C348.053 38 353.817 40.3257 358.468 44.9771C363.12 49.6285 365.445 55.3922 365.445 62.2681C365.445 69.1441 363.12 74.9078 358.468 79.5592C353.817 84.2105 348.053 86.5362 341.177 86.5362H316.909V232.145L451.597 395.955C464.54 411.729 466.664 428.818 457.968 447.221C449.272 465.624 434.61 474.826 413.982 474.826H74.228ZM74.228 426.29H413.982L268.373 249.133V86.5362H219.837V249.133L74.228 426.29Z" fill="#7C1B1B"/>
<path d="M120.488 474.565C99.751 474.565 85.0116 465.348 76.2697 446.914C67.5277 428.479 69.6624 411.361 82.6737 395.56L218.072 231.473V85.6184H193.676C186.764 85.6184 180.97 83.2887 176.294 78.6295C171.618 73.9702 169.28 68.1968 169.28 61.3092C169.28 54.4216 171.618 48.6481 176.294 43.9889C180.97 39.3296 186.764 37 193.676 37H388.846C395.758 37 401.552 39.3296 406.228 43.9889C410.904 48.6481 413.242 54.4216 413.242 61.3092C413.242 68.1968 410.904 73.9702 406.228 78.6295C401.552 83.2887 395.758 85.6184 388.846 85.6184H364.449V231.473L499.848 395.56C512.859 411.361 514.994 428.479 506.252 446.914C497.51 465.348 482.771 474.565 462.034 474.565H120.488ZM121.261 424.304H460.256L315.657 248.49V85.6184H266.865V248.49L121.261 424.304Z" fill="#FE4343"/>
</svg>
