<svg width="174" height="67" viewBox="0 0 174 67" fill="none" xmlns="http://www.w3.org/2000/svg">
<path d="M8.47734 66.39V32.49H27.7373V66.39H8.47734ZM26.7173 54.21C26.7173 52.91 26.3573 51.81 25.6373 50.91C24.9373 50.01 23.8873 49.46 22.4873 49.26V49.14C23.6073 48.96 24.4773 48.49 25.0973 47.73C25.7173 46.97 26.0273 46.08 26.0273 45.06C26.0273 43.68 25.4773 42.58 24.3773 41.76C23.2973 40.92 21.8673 40.5 20.0873 40.5H9.94734V43.92H12.0473V56.58H9.94734V60H20.2073C22.4473 60 24.0873 59.43 25.1273 58.29C26.1873 57.13 26.7173 55.77 26.7173 54.21ZM21.7073 46.11C21.7073 46.77 21.4973 47.33 21.0773 47.79C20.6573 48.25 19.8773 48.48 18.7373 48.48H16.0673V43.92H19.0373C19.7573 43.92 20.3773 44.07 20.8973 44.37C21.4373 44.65 21.7073 45.23 21.7073 46.11ZM22.3973 54.06C22.3973 55.74 21.3173 56.58 19.1573 56.58H16.0673V51.6H19.4273C21.4073 51.6 22.3973 52.42 22.3973 54.06ZM27.1395 66.39V32.49H45.5595V66.39H27.1395ZM28.6095 60H43.6695L44.2695 54.3L40.8495 54L40.2495 56.58H34.7295V51.9H42.9495V48.51H34.7295V43.92H40.0695L40.6695 46.5L44.0895 46.2L43.4895 40.5H28.6095V43.92H30.7095V56.58H28.6095V60ZM44.952 66.39V32.49H68.352V66.39H44.952ZM65.142 43.92H67.242V40.5H58.572V43.92H61.392V52.08H61.272L51.432 40.5H46.122V43.92H48.552V56.58H46.452V60H55.002V56.58H52.302V47.64H52.422L62.892 60.03L65.142 60V43.92ZM67.7449 66.39V32.49H87.6349V66.39H67.7449ZM85.8649 57.93L86.2549 53.34L82.9849 53.04L82.5649 55.95C81.6649 56.49 80.4249 56.76 78.8449 56.76C77.1649 56.76 75.7849 56.25 74.7049 55.23C73.6249 54.21 73.0849 52.57 73.0849 50.31C73.0849 48.17 73.5749 46.54 74.5549 45.42C75.5549 44.3 76.8949 43.74 78.5749 43.74C79.2349 43.74 79.9349 43.83 80.6749 44.01C81.4149 44.19 82.0449 44.45 82.5649 44.79L82.9849 47.37L86.2549 47.07L85.7749 42.54C85.1549 41.96 84.2449 41.43 83.0449 40.95C81.8449 40.45 80.4149 40.2 78.7549 40.2C76.2949 40.2 74.3349 40.75 72.8749 41.85C71.4149 42.95 70.3649 44.3 69.7249 45.9C69.0849 47.5 68.7649 49.06 68.7649 50.58C68.7649 53.48 69.7049 55.83 71.5849 57.63C73.4649 59.41 75.7949 60.3 78.5749 60.3C79.9749 60.3 81.3749 60.08 82.7749 59.64C84.1949 59.2 85.2249 58.63 85.8649 57.93ZM109.874 66.39V32.49H127.244V66.39H109.874ZM111.344 60H125.984L126.584 53.1L123.164 52.8L122.564 56.58H117.464V43.92H120.194V40.5H111.344V43.92H113.444V56.58H111.344V60ZM126.632 32.49H146.852V56.58H144.992L137.972 40.5H131.282V43.92H133.982L128.402 56.58H126.632V32.49ZM136.802 46.23L138.842 51.72H134.432L136.622 46.23H136.802ZM146.852 66.39H126.632V60H134.312V56.58H132.482L133.292 54.6H139.922L140.642 56.58H139.082V60H146.852V66.39ZM146.261 66.39V32.49H165.521V66.39H146.261ZM164.501 54.21C164.501 52.91 164.141 51.81 163.421 50.91C162.721 50.01 161.671 49.46 160.271 49.26V49.14C161.391 48.96 162.261 48.49 162.881 47.73C163.501 46.97 163.811 46.08 163.811 45.06C163.811 43.68 163.261 42.58 162.161 41.76C161.081 40.92 159.651 40.5 157.871 40.5H147.731V43.92H149.831V56.58H147.731V60H157.991C160.231 60 161.871 59.43 162.911 58.29C163.971 57.13 164.501 55.77 164.501 54.21ZM159.491 46.11C159.491 46.77 159.281 47.33 158.861 47.79C158.441 48.25 157.661 48.48 156.521 48.48H153.851V43.92H156.821C157.541 43.92 158.161 44.07 158.681 44.37C159.221 44.65 159.491 45.23 159.491 46.11ZM160.181 54.06C160.181 55.74 159.101 56.58 156.941 56.58H153.851V51.6H157.211C159.191 51.6 160.181 52.42 160.181 54.06Z" fill="#002C67"/>
<path d="M87.0223 66.39V32.49H110.482V66.39H87.0223ZM100.762 60H108.982V56.58H106.882V43.92H108.982V40.5H100.762V43.92H102.862V48.42H94.6123V43.92H96.7123V40.5H88.4923V43.92H90.5923V56.58H88.4923V60H96.7123V56.58H94.6123V51.81H102.862V56.58H100.762V60Z" fill="#F67D2A"/>
<path d="M24.47 0.779999C20.57 0.779999 16.93 2.21 14.2 4.94C11.34 7.8 9.65 11.83 9.65 15.99C9.65 22.62 13.94 26.91 20.44 26.91C24.34 26.91 27.98 25.48 30.71 22.75C33.57 19.89 35.26 15.86 35.26 11.83C35.26 5.33 30.84 0.779999 24.47 0.779999ZM19.66 5.98C20.96 4.81 22.26 4.16 23.82 4.16C27.33 4.16 29.02 6.63 29.02 11.7C29.02 15.73 27.59 19.63 25.25 21.97C24.08 23.14 22.65 23.79 21.09 23.79C17.71 23.79 15.89 21.19 15.89 16.51C15.89 12.22 17.45 8.19 19.66 5.98Z" fill="#002C67"/>
<path d="M45.01 21.71C45.01 21.45 45.14 21.06 45.14 20.67L46.83 13.13H46.31H41.11L39.42 20.67C38.64 24.44 38.64 24.44 35.78 24.7H35.26L34.87 26.91H47.74L48.13 24.7H47.61C44.88 24.44 44.49 24.44 45.01 21.71Z" fill="#002C67"/>
<path d="M63.21 25.61C61.78 25.48 60.35 24.31 59.83 23.53C59.31 22.75 58.53 21.32 57.75 19.37C57.1 17.94 56.45 15.99 56.06 14.82C59.18 13.78 61.52 11.57 61.91 8.84C61.91 8.45 62.04 8.19 62.04 7.8C62.04 3.64 59.05 1.43 53.33 1.43H43.71H43.19L42.93 2.6L42.54 5.33L51.77 5.46C54.37 5.59 55.93 5.85 55.93 7.8C55.93 10.01 54.63 12.09 52.81 12.61C52.81 12.61 51.64 13 50.6 13H49.56L49.17 16.25H49.69C50.47 16.25 50.73 16.38 50.99 17.42L51.25 18.33C51.77 20.02 52.42 21.84 53.07 23.14C54.37 25.74 56.06 27.56 60.22 27.69H63.73L63.86 25.48L63.21 25.61Z" fill="#002C67"/>
<path d="M111.18 1.43L111.31 0.91H110.79H109.88L109.62 1.17C108.97 1.82 108.84 1.95 108.19 1.95H71.53C70.62 1.95 70.49 1.95 70.23 1.3L70.1 0.91H68.67L67.5 5.33L66.59 8.97H67.11H68.8L68.93 8.58C69.58 7.15 69.97 6.63 70.36 6.11C70.36 6.11 70.49 5.85 70.62 5.85C71.14 5.59 73.22 5.59 75.3 5.72C75.17 6.63 72.57 20.8 72.57 20.8C71.79 24.57 71.79 24.57 68.93 24.7H68.41L68.02 26.91H80.89L81.28 24.7H80.76C78.03 24.57 77.64 24.44 78.03 21.84C78.03 21.58 78.16 21.19 78.16 20.8C78.16 20.8 81.02 6.5 81.15 5.46C82.19 5.46 106.5 5.46 106.63 5.46C106.76 5.46 106.89 5.59 106.89 5.59C107.41 5.72 107.8 5.85 107.67 8.58L107.8 9.1L110.14 8.84L110.4 7.28C110.66 5.07 110.92 2.73 111.18 1.43Z" fill="#002C67"/>
<path d="M106.76 19.37L106.5 19.76C105.72 21.32 104.94 22.49 104.03 23.27C103.64 23.66 102.6 24.18 100.26 24.18C98.7 24.18 97.92 24.05 97.66 23.66C97.4 23.27 97.4 22.75 97.53 21.45C97.53 21.32 97.53 21.32 97.53 21.19C97.53 21.19 98.31 16.9 98.7 15.34C99.35 15.34 100.78 15.34 100.78 15.34C103.51 15.34 103.51 15.34 103.38 17.94V18.46H105.72L106.89 12.48H106.37H93.76L92.2 20.8C91.42 24.57 91.29 24.57 88.95 24.7H88.43L87.91 26.91H106.5L106.63 26.52C107.28 24.96 108.84 20.8 108.97 20.28L109.1 19.76L106.76 19.37Z" fill="#F67D2A"/>
<path d="M136.14 19.5L134.45 18.98L134.19 19.37C131.59 23.4 129.51 24.96 126.65 24.96C121.84 24.96 120.8 20.28 120.8 16.25C120.8 12.48 122.1 9.1 124.44 6.76C126.13 5.07 128.34 4.16 130.68 4.16C133.93 4.16 135.36 5.72 135.62 9.23V9.62L137.96 9.49V8.97C138.09 7.15 138.22 4.94 138.35 2.99V2.6L138.09 2.47C137.18 2.21 134.71 1.43 131.33 1.43C126.52 1.43 121.97 3.25 118.85 6.24C115.99 9.1 114.43 12.74 114.43 16.77C114.43 23.4 118.85 27.56 126 27.56C128.86 27.56 131.2 26.91 132.5 26.65L133.28 26.52L133.41 26.26C134.06 25.22 134.71 23.53 135.36 22.1L136.53 19.63L136.14 19.5Z" fill="#002C67"/>
</svg>
