<svg width="512" height="512" viewBox="0 0 512 512" fill="none" xmlns="http://www.w3.org/2000/svg">
<path d="M256 35L456.005 154.34C462.635 158.392 467.792 163.917 471.475 170.915C475.158 177.913 477 185.28 477 193.015V432.8C477 444.955 472.672 455.36 464.016 464.016C455.36 472.672 444.955 477 432.8 477H79.2C67.045 477 56.6396 472.672 47.9838 464.016C39.3279 455.36 35 444.955 35 432.8V193.015C35 185.28 36.8417 177.913 40.525 170.915C44.2083 163.917 49.365 158.392 55.995 154.34L256 35ZM256 292.465L428.38 189.7L256 86.935L83.62 189.7L256 292.465ZM256 344.4L79.2 238.32V432.8L256 344.4L432.8 432.8V238.32L256 344.4Z" fill="#002C67"/>
<path d="M256 292.465L428.38 189.7L256 86.935L83.62 189.7L256 292.465Z" fill="#001A3D"/>
<path d="M256 344.4L79.2 238.32V432.8L256 344.4Z" fill="#002F6D"/>
<path d="M432.8 432.8V238.32L256 344.4L432.8 432.8Z" fill="#002F6D"/>
<path d="M97 153H415V197.672L256 292.5L97 197.68V153Z" fill="#F67D2A"/>
<mask id="path-3-outside-1_1_2" maskUnits="userSpaceOnUse" x="209" y="173" width="92" height="89" fill="black">
<rect fill="white" x="209" y="173" width="92" height="89"/>
<path d="M271.797 197.906H279.766L271.141 224.766C270.359 227.016 269.969 228.625 269.969 229.594C269.969 231.312 270.906 232.594 272.781 233.438C273.406 233.688 274.078 233.812 274.797 233.812C278.891 233.812 282.625 231.5 286 226.875C289.281 222.344 290.922 217.297 290.922 211.734C290.922 204.047 287.812 197.359 281.594 191.672C275.25 185.766 267.578 182.625 258.578 182.25H257.125C247.719 182.25 239.391 185.516 232.141 192.047L228.906 195.328C222.562 202.547 219.391 210.703 219.391 219.797C219.391 228.828 222.75 236.438 229.469 242.625C236.375 249.031 245.016 252.234 255.391 252.234C260.453 252.234 266.625 251.203 273.906 249.141L276.625 255.562C269.438 258.25 262.203 259.594 254.922 259.594C243.391 259.594 233.438 256.172 225.062 249.328C217.25 242.953 212.734 235.062 211.516 225.656C211.328 224.188 211.234 222.719 211.234 221.25C211.234 211.375 214.281 202.281 220.375 193.969C222.156 191.469 224.172 189.234 226.422 187.266C233.328 180.984 241.609 177.047 251.266 175.453C253.641 175.047 256.016 174.844 258.391 174.844C269.016 174.844 278.25 178.078 286.094 184.547C293.531 190.578 297.828 197.906 298.984 206.531C299.172 207.875 299.266 209.219 299.266 210.562C299.266 218.312 296.516 225.453 291.016 231.984C286.141 237.672 280.188 240.516 273.156 240.516C267 240.516 263.484 238.062 262.609 233.156C258.391 237.75 253.844 240.047 248.969 240.047C243.719 240.047 239.594 237.844 236.594 233.438C234.406 230.281 233.312 226.625 233.312 222.469C233.312 215.5 235.844 209.328 240.906 203.953C245.844 198.641 251.531 195.953 257.969 195.891C263.344 195.891 267.25 198.672 269.688 204.234L271.797 197.906ZM257.406 202.031C253.188 202.031 249.484 204.297 246.297 208.828C243.391 212.859 241.938 217.438 241.938 222.562C241.938 226.875 243.453 230.109 246.484 232.266C248.016 233.359 249.672 233.906 251.453 233.906C255.172 233.906 258.438 231.828 261.25 227.672C263.375 224.609 264.938 220.375 265.938 214.969C266.219 213.562 266.391 212.328 266.453 211.266V210.609C266.453 207.453 265.141 205.047 262.516 203.391C260.953 202.484 259.25 202.031 257.406 202.031Z"/>
</mask>
<path d="M271.797 197.906H279.766L271.141 224.766C270.359 227.016 269.969 228.625 269.969 229.594C269.969 231.312 270.906 232.594 272.781 233.438C273.406 233.688 274.078 233.812 274.797 233.812C278.891 233.812 282.625 231.5 286 226.875C289.281 222.344 290.922 217.297 290.922 211.734C290.922 204.047 287.812 197.359 281.594 191.672C275.25 185.766 267.578 182.625 258.578 182.25H257.125C247.719 182.25 239.391 185.516 232.141 192.047L228.906 195.328C222.562 202.547 219.391 210.703 219.391 219.797C219.391 228.828 222.75 236.438 229.469 242.625C236.375 249.031 245.016 252.234 255.391 252.234C260.453 252.234 266.625 251.203 273.906 249.141L276.625 255.562C269.438 258.25 262.203 259.594 254.922 259.594C243.391 259.594 233.438 256.172 225.062 249.328C217.25 242.953 212.734 235.062 211.516 225.656C211.328 224.188 211.234 222.719 211.234 221.25C211.234 211.375 214.281 202.281 220.375 193.969C222.156 191.469 224.172 189.234 226.422 187.266C233.328 180.984 241.609 177.047 251.266 175.453C253.641 175.047 256.016 174.844 258.391 174.844C269.016 174.844 278.25 178.078 286.094 184.547C293.531 190.578 297.828 197.906 298.984 206.531C299.172 207.875 299.266 209.219 299.266 210.562C299.266 218.312 296.516 225.453 291.016 231.984C286.141 237.672 280.188 240.516 273.156 240.516C267 240.516 263.484 238.062 262.609 233.156C258.391 237.75 253.844 240.047 248.969 240.047C243.719 240.047 239.594 237.844 236.594 233.438C234.406 230.281 233.312 226.625 233.312 222.469C233.312 215.5 235.844 209.328 240.906 203.953C245.844 198.641 251.531 195.953 257.969 195.891C263.344 195.891 267.25 198.672 269.688 204.234L271.797 197.906ZM257.406 202.031C253.188 202.031 249.484 204.297 246.297 208.828C243.391 212.859 241.938 217.438 241.938 222.562C241.938 226.875 243.453 230.109 246.484 232.266C248.016 233.359 249.672 233.906 251.453 233.906C255.172 233.906 258.438 231.828 261.25 227.672C263.375 224.609 264.938 220.375 265.938 214.969C266.219 213.562 266.391 212.328 266.453 211.266V210.609C266.453 207.453 265.141 205.047 262.516 203.391C260.953 202.484 259.25 202.031 257.406 202.031Z" fill="white"/>
<path d="M271.797 197.906V196.406H270.716L270.374 197.432L271.797 197.906ZM279.766 197.906L281.194 198.365L281.823 196.406H279.766V197.906ZM271.141 224.766L272.558 225.258L272.563 225.241L272.569 225.224L271.141 224.766ZM272.781 233.438L272.166 234.805L272.195 234.818L272.224 234.83L272.781 233.438ZM286 226.875L287.212 227.759L287.215 227.755L286 226.875ZM281.594 191.672L280.572 192.77L280.581 192.779L281.594 191.672ZM258.578 182.25L258.641 180.751L258.609 180.75H258.578V182.25ZM232.141 192.047L231.137 190.932L231.104 190.962L231.072 190.994L232.141 192.047ZM228.906 195.328L227.838 194.275L227.808 194.306L227.78 194.338L228.906 195.328ZM229.469 242.625L230.489 241.525L230.485 241.522L229.469 242.625ZM273.906 249.141L275.288 248.556L274.771 247.337L273.497 247.697L273.906 249.141ZM276.625 255.562L277.15 256.967L278.617 256.419L278.006 254.978L276.625 255.562ZM225.062 249.328L226.012 248.167L226.011 248.166L225.062 249.328ZM211.516 225.656L210.028 225.846L210.028 225.849L211.516 225.656ZM220.375 193.969L221.585 194.856L221.591 194.847L221.597 194.839L220.375 193.969ZM226.422 187.266L227.41 188.394L227.42 188.385L227.431 188.375L226.422 187.266ZM251.266 175.453L251.51 176.933L251.519 176.932L251.266 175.453ZM286.094 184.547L285.139 185.704L285.149 185.712L286.094 184.547ZM298.984 206.531L297.498 206.731L297.499 206.739L298.984 206.531ZM291.016 231.984L292.155 232.961L292.163 232.951L291.016 231.984ZM262.609 233.156L264.086 232.893L263.554 229.91L261.505 232.142L262.609 233.156ZM236.594 233.438L237.834 232.593L237.827 232.583L236.594 233.438ZM240.906 203.953L241.998 204.982L242.005 204.974L240.906 203.953ZM257.969 195.891V194.391H257.961L257.954 194.391L257.969 195.891ZM269.688 204.234L268.314 204.836L269.878 208.406L271.111 204.709L269.688 204.234ZM246.297 208.828L247.514 209.705L247.519 209.698L247.524 209.691L246.297 208.828ZM246.484 232.266L247.356 231.045L247.354 231.043L246.484 232.266ZM261.25 227.672L260.018 226.817L260.013 226.824L260.008 226.831L261.25 227.672ZM265.938 214.969L264.467 214.675L264.464 214.685L264.463 214.696L265.938 214.969ZM266.453 211.266L267.951 211.354L267.953 211.31V211.266H266.453ZM262.516 203.391L263.316 202.122L263.292 202.107L263.268 202.093L262.516 203.391ZM271.797 199.406H279.766V196.406H271.797V199.406ZM278.337 197.448L269.712 224.307L272.569 225.224L281.194 198.365L278.337 197.448ZM269.724 224.274C268.945 226.517 268.469 228.344 268.469 229.594H271.469C271.469 228.906 271.774 227.514 272.558 225.258L269.724 224.274ZM268.469 229.594C268.469 230.744 268.789 231.81 269.461 232.73C270.122 233.633 271.06 234.308 272.166 234.805L273.397 232.07C272.628 231.724 272.159 231.336 271.882 230.958C271.618 230.596 271.469 230.162 271.469 229.594H268.469ZM272.224 234.83C273.038 235.156 273.9 235.312 274.797 235.312V232.312C274.256 232.312 273.774 232.219 273.338 232.045L272.224 234.83ZM274.797 235.312C279.543 235.312 283.675 232.606 287.212 227.759L284.788 225.991C281.575 230.394 278.238 232.312 274.797 232.312V235.312ZM287.215 227.755C290.68 222.969 292.422 217.615 292.422 211.734H289.422C289.422 216.979 287.882 221.718 284.785 225.995L287.215 227.755ZM292.422 211.734C292.422 203.583 289.102 196.506 282.606 190.565L280.581 192.779C286.523 198.213 289.422 204.511 289.422 211.734H292.422ZM282.616 190.574C275.999 184.414 267.983 181.141 258.641 180.751L258.516 183.749C267.174 184.109 274.501 187.117 280.572 192.77L282.616 190.574ZM258.578 180.75H257.125V183.75H258.578V180.75ZM257.125 180.75C247.333 180.75 238.651 184.163 231.137 190.932L233.145 193.161C240.13 186.868 248.105 183.75 257.125 183.75V180.75ZM231.072 190.994L227.838 194.275L229.975 196.381L233.209 193.1L231.072 190.994ZM227.78 194.338C221.21 201.814 217.891 210.317 217.891 219.797H220.891C220.891 211.089 223.915 203.28 230.033 196.318L227.78 194.338ZM217.891 219.797C217.891 229.253 221.429 237.261 228.453 243.728L230.485 241.522C224.071 235.614 220.891 228.403 220.891 219.797H217.891ZM228.449 243.725C235.661 250.415 244.679 253.734 255.391 253.734V250.734C245.352 250.734 237.089 247.647 230.489 241.525L228.449 243.725ZM255.391 253.734C260.641 253.734 266.96 252.667 274.315 250.584L273.497 247.697C266.29 249.739 260.265 250.734 255.391 250.734V253.734ZM272.525 249.725L275.244 256.147L278.006 254.978L275.288 248.556L272.525 249.725ZM276.1 254.158C269.071 256.786 262.014 258.094 254.922 258.094V261.094C262.392 261.094 269.804 259.714 277.15 256.967L276.1 254.158ZM254.922 258.094C243.712 258.094 234.1 254.776 226.012 248.167L224.113 250.49C232.775 257.567 243.069 261.094 254.922 261.094V258.094ZM226.011 248.166C218.475 242.016 214.169 234.464 213.003 225.464L210.028 225.849C211.299 235.661 216.025 243.89 224.114 250.49L226.011 248.166ZM213.004 225.466C212.824 224.06 212.734 222.655 212.734 221.25H209.734C209.734 222.783 209.832 224.315 210.028 225.846L213.004 225.466ZM212.734 221.25C212.734 211.709 215.671 202.923 221.585 194.856L219.165 193.082C212.892 201.64 209.734 211.041 209.734 221.25H212.734ZM221.597 194.839C223.312 192.432 225.25 190.284 227.41 188.394L225.434 186.137C223.094 188.184 221 190.506 219.153 193.098L221.597 194.839ZM227.431 188.375C234.113 182.298 242.124 178.482 251.51 176.933L251.021 173.973C241.094 175.612 232.543 179.67 225.413 186.156L227.431 188.375ZM251.519 176.932C253.811 176.539 256.102 176.344 258.391 176.344V173.344C255.93 173.344 253.47 173.554 251.013 173.975L251.519 176.932ZM258.391 176.344C268.684 176.344 277.577 179.468 285.139 185.704L287.048 183.39C278.923 176.689 269.347 173.344 258.391 173.344V176.344ZM285.149 185.712C292.322 191.529 296.398 198.524 297.498 206.731L300.471 206.332C299.259 197.288 294.741 189.628 287.039 183.382L285.149 185.712ZM297.499 206.739C297.677 208.014 297.766 209.289 297.766 210.562H300.766C300.766 209.149 300.667 207.736 300.47 206.324L297.499 206.739ZM297.766 210.562C297.766 217.922 295.165 224.728 289.868 231.018L292.163 232.951C297.866 226.178 300.766 218.703 300.766 210.562H297.766ZM289.877 231.008C285.266 236.388 279.718 239.016 273.156 239.016V242.016C280.657 242.016 287.016 238.956 292.155 232.961L289.877 231.008ZM273.156 239.016C270.257 239.016 268.179 238.435 266.761 237.446C265.382 236.484 264.466 235.023 264.086 232.893L261.133 233.42C261.628 236.195 262.907 238.415 265.044 239.906C267.142 241.37 269.899 242.016 273.156 242.016V239.016ZM261.505 232.142C257.486 236.518 253.313 238.547 248.969 238.547V241.547C254.374 241.547 259.296 238.982 263.714 234.171L261.505 232.142ZM248.969 238.547C244.224 238.547 240.559 236.597 237.834 232.593L235.354 234.282C238.628 239.091 243.213 241.547 248.969 241.547V238.547ZM237.827 232.583C235.828 229.699 234.812 226.346 234.812 222.469H231.812C231.812 226.904 232.985 230.864 235.361 234.292L237.827 232.583ZM234.812 222.469C234.812 215.907 237.181 210.097 241.998 204.982L239.814 202.925C234.507 208.56 231.812 215.093 231.812 222.469H234.812ZM242.005 204.974C246.701 199.921 252.012 197.449 257.983 197.391L257.954 194.391C251.051 194.458 244.986 197.36 239.808 202.932L242.005 204.974ZM257.969 197.391C260.384 197.391 262.391 198.01 264.06 199.198C265.74 200.395 267.175 202.238 268.314 204.836L271.061 203.632C269.762 200.668 268.025 198.339 265.8 196.755C263.562 195.162 260.929 194.391 257.969 194.391V197.391ZM271.111 204.709L273.22 198.381L270.374 197.432L268.264 203.76L271.111 204.709ZM257.406 200.531C252.552 200.531 248.441 203.172 245.07 207.965L247.524 209.691C250.527 205.421 253.823 203.531 257.406 203.531V200.531ZM245.08 207.951C241.984 212.246 240.438 217.133 240.438 222.562H243.438C243.438 217.742 244.798 213.473 247.514 209.705L245.08 207.951ZM240.438 222.562C240.438 227.272 242.121 231.003 245.615 233.488L247.354 231.043C244.785 229.216 243.438 226.478 243.438 222.562H240.438ZM245.613 233.486C247.383 234.751 249.341 235.406 251.453 235.406V232.406C250.003 232.406 248.648 231.968 247.356 231.045L245.613 233.486ZM251.453 235.406C255.835 235.406 259.508 232.923 262.492 228.513L260.008 226.831C257.367 230.734 254.509 232.406 251.453 232.406V235.406ZM262.482 228.527C264.772 225.227 266.391 220.766 267.412 215.242L264.463 214.696C263.484 219.984 261.978 223.992 260.018 226.817L262.482 228.527ZM267.408 215.263C267.699 213.81 267.883 212.504 267.951 211.354L264.956 211.178C264.898 212.152 264.739 213.315 264.467 214.675L267.408 215.263ZM267.953 211.266V210.609H264.953V211.266H267.953ZM267.953 210.609C267.953 206.949 266.385 204.059 263.316 202.122L261.715 204.659C263.896 206.035 264.953 207.957 264.953 210.609H267.953ZM263.268 202.093C261.472 201.051 259.509 200.531 257.406 200.531V203.531C258.991 203.531 260.434 203.917 261.763 204.688L263.268 202.093Z" fill="white" mask="url(#path-3-outside-1_1_2)"/>
</svg>
